<svg width="88" height="106" viewBox="0 0 88 106" fill="none" xmlns="http://www.w3.org/2000/svg">
<g filter="url(#filter0_d)">
<path d="M13.7402 3.42747L14.7174 3.2152L14.7123 3.19158L14.706 3.16823L13.7402 3.42747ZM13.8075 3.73757L14.7939 3.57272L14.7899 3.5489L14.7847 3.52531L13.8075 3.73757ZM17.0001 22.8395L16.0138 23.0044L16.1534 23.8395L17.0001 23.8395L17.0001 22.8395ZM80.7112 22.8411L80.7112 23.8411H80.7112V22.8411ZM83.9961 26.2709L84.9915 26.3666L84.9937 26.3432L84.9949 26.3197L83.9961 26.2709ZM83.9663 26.5806L84.9562 26.7225L84.9595 26.6995L84.9617 26.6762L83.9663 26.5806ZM79.5821 57.1582L78.5923 57.0163V57.0163L79.5821 57.1582ZM79.429 57.7817L80.372 58.1145L80.372 58.1145L79.429 57.7817ZM63.7839 68.7306L63.746 69.7299L63.7556 69.7302L63.7653 69.7304L63.7839 68.7306ZM63.1745 68.7075L63.2123 67.7082L63.1935 67.7075H63.1746L63.1745 68.7075ZM32.6713 68.7022L32.6715 67.7022L32.6431 67.7022L32.6149 67.7038L32.6713 68.7022ZM16.2306 57.7817L15.274 58.0733L15.2803 58.094L15.2876 58.1145L16.2306 57.7817ZM16.1479 57.5106L15.1697 57.7182L15.1787 57.7607L15.1914 57.8022L16.1479 57.5106ZM16.0891 57.2335L15.1028 57.3984L15.1064 57.4198L15.1109 57.4411L16.0891 57.2335ZM7.77897 7.55234L8.76527 7.38736L8.62559 6.55234H7.77897V7.55234ZM4.01505 4.59169L3.01619 4.63934L3.01733 4.66329L3.01962 4.68715L4.01505 4.59169ZM4 4.27617H3V4.30001L3.00114 4.32382L4 4.27617ZM6.97148 1.015L6.92417 0.016117L6.90039 0.017243L6.8767 0.0194991L6.97148 1.015ZM7.28815 1V0H7.26448L7.24084 0.00111955L7.28815 1ZM14.706 3.16823C14.2083 1.31396 12.5184 0 10.5641 0V2C11.6103 2 12.5104 2.70325 12.7744 3.68671L14.706 3.16823ZM14.7847 3.52531L14.7174 3.2152L12.763 3.63973L12.8303 3.94983L14.7847 3.52531ZM17.9864 22.6747L14.7939 3.57272L12.8212 3.90242L16.0138 23.0044L17.9864 22.6747ZM80.7113 21.8411L17.0001 21.8395L17.0001 23.8395L80.7112 23.8411L80.7113 21.8411ZM84.9949 26.3197C85.1128 23.9063 83.1807 21.8411 80.7112 21.8411V23.8411C82.0331 23.8411 83.0596 24.9456 82.9973 26.2221L84.9949 26.3197ZM84.9617 26.6762L84.9915 26.3666L83.0007 26.1753L82.9709 26.485L84.9617 26.6762ZM80.572 57.3001L84.9562 26.7225L82.9765 26.4387L78.5923 57.0163L80.572 57.3001ZM80.372 58.1145C80.4652 57.8502 80.5322 57.5775 80.572 57.3001L78.5923 57.0163C78.5711 57.1636 78.5355 57.3084 78.486 57.4489L80.372 58.1145ZM63.7653 69.7304C71.092 69.8668 77.8703 65.2029 80.372 58.1145L78.486 57.4489C76.2692 63.7299 70.2622 67.851 63.8025 67.7308L63.7653 69.7304ZM63.1366 69.7068L63.746 69.7299L63.8218 67.7313L63.2123 67.7082L63.1366 69.7068ZM32.6711 69.7022L63.1743 69.7075L63.1746 67.7075L32.6715 67.7022L32.6711 69.7022ZM15.2876 58.1145C17.8649 65.4172 24.9763 70.1387 32.7277 69.7006L32.6149 67.7038C25.7476 68.0919 19.4535 63.9089 17.1736 57.4489L15.2876 58.1145ZM15.1914 57.8022L15.274 58.0733L17.1871 57.4901L17.1045 57.219L15.1914 57.8022ZM15.1109 57.4411L15.1697 57.7182L17.1261 57.303L17.0673 57.0259L15.1109 57.4411ZM6.79267 7.71731L15.1028 57.3984L17.0754 57.0685L8.76527 7.38736L6.79267 7.71731ZM7.28815 8.55234H7.77897V6.55234H7.28815V8.55234ZM3.01962 4.68715C3.22796 6.85948 5.06169 8.55234 7.28815 8.55234V6.55234C6.09626 6.55234 5.12081 5.64659 5.01048 4.49622L3.01962 4.68715ZM3.00114 4.32382L3.01619 4.63934L5.01392 4.54403L4.99886 4.22852L3.00114 4.32382ZM6.8767 0.0194991C4.70392 0.226364 3 2.04976 3 4.27617H5C5 3.09669 5.90418 2.12113 7.06625 2.0105L6.8767 0.0194991ZM7.24084 0.00111955L6.92417 0.016117L7.01878 2.01388L7.33545 1.99888L7.24084 0.00111955ZM10.5641 0H7.28815V2H10.5641V0ZM30.4593 72C23.2515 72 17.4 77.8157 17.4 85H19.4C19.4 78.9295 24.3467 74 30.4593 74V72ZM43.5185 85C43.5185 77.8157 37.667 72 30.4593 72V74C36.5718 74 41.5185 78.9295 41.5185 85H43.5185ZM30.4593 98C37.667 98 43.5185 92.1843 43.5185 85H41.5185C41.5185 91.0705 36.5718 96 30.4593 96V98ZM17.4 85C17.4 92.1843 23.2515 98 30.4593 98V96C24.3467 96 19.4 91.0705 19.4 85H17.4ZM30.4594 80.5449C32.9391 80.5449 34.9409 82.5439 34.9409 84.9994H36.9409C36.9409 81.43 34.0344 78.5449 30.4594 78.5449V80.5449ZM25.978 84.9994C25.978 82.5439 27.9797 80.5449 30.4594 80.5449V78.5449C26.8845 78.5449 23.978 81.43 23.978 84.9994H25.978ZM30.4594 89.4539C27.9797 89.4539 25.978 87.4549 25.978 84.9994H23.978C23.978 88.5688 26.8845 91.4539 30.4594 91.4539V89.4539ZM34.9409 84.9994C34.9409 87.4549 32.9391 89.4539 30.4594 89.4539V91.4539C34.0344 91.4539 36.9409 88.5688 36.9409 84.9994H34.9409ZM54.4813 85C54.4813 78.9295 59.428 74 65.5405 74V72C58.3327 72 52.4813 77.8157 52.4813 85H54.4813ZM65.5405 96C59.428 96 54.4813 91.0705 54.4813 85H52.4813C52.4813 92.1843 58.3327 98 65.5405 98V96ZM76.5998 85C76.5998 91.0705 71.653 96 65.5405 96V98C72.7483 98 78.5998 92.1843 78.5998 85H76.5998ZM65.5405 74C71.653 74 76.5998 78.9295 76.5998 85H78.5998C78.5998 77.8157 72.7483 72 65.5405 72V74ZM72.0221 84.9994C72.0221 81.43 69.1156 78.5449 65.5406 78.5449V80.5449C68.0203 80.5449 70.0221 82.5439 70.0221 84.9994H72.0221ZM65.5406 91.4539C69.1156 91.4539 72.0221 88.5688 72.0221 84.9994H70.0221C70.0221 87.4549 68.0203 89.4539 65.5406 89.4539V91.4539ZM59.0592 84.9994C59.0592 88.5688 61.9657 91.4539 65.5406 91.4539V89.4539C63.0609 89.4539 61.0592 87.4549 61.0592 84.9994H59.0592ZM65.5406 78.5449C61.9657 78.5449 59.0592 81.43 59.0592 84.9994H61.0592C61.0592 82.5439 63.0609 80.5449 65.5406 80.5449V78.5449Z" fill="white"/>
</g>
<defs>
<filter id="filter0_d" x="0.166667" y="0" width="87.6667" height="105.083" filterUnits="userSpaceOnUse" color-interpolation-filters="sRGB">
<feFlood flood-opacity="0" result="BackgroundImageFix"/>
<feColorMatrix in="SourceAlpha" type="matrix" values="0 0 0 0 0 0 0 0 0 0 0 0 0 0 0 0 0 0 127 0"/>
<feOffset dy="4.25"/>
<feGaussianBlur stdDeviation="1.41667"/>
<feColorMatrix type="matrix" values="0 0 0 0 0.216667 0 0 0 0 0.5 0 0 0 0 0.276316 0 0 0 0.07 0"/>
<feBlend mode="normal" in2="BackgroundImageFix" result="effect1_dropShadow"/>
<feBlend mode="normal" in="SourceGraphic" in2="effect1_dropShadow" result="shape"/>
</filter>
</defs>
</svg>
