<svg width="123" height="128" viewBox="0 0 123 128" fill="none" xmlns="http://www.w3.org/2000/svg">
<g clip-path="url(#clip0)">
<path d="M55.0604 32.91C57.0818 32.91 58.7204 31.2713 58.7204 29.25C58.7204 27.2286 57.0818 25.59 55.0604 25.59C53.039 25.59 51.4004 27.2286 51.4004 29.25C51.4004 31.2713 53.039 32.91 55.0604 32.91Z" fill="#E3AC33"/>
<path d="M46.3701 57.36V102.79" stroke="white" stroke-width="3" stroke-miterlimit="10" stroke-linecap="round" stroke-linejoin="round"/>
<path d="M24.2197 102.79H55.0597" stroke="white" stroke-width="3" stroke-miterlimit="10" stroke-linecap="round" stroke-linejoin="round"/>
<path d="M16.46 20.12H76.29" stroke="white" stroke-width="3" stroke-miterlimit="10" stroke-linecap="round" stroke-linejoin="round"/>
<path d="M46.37 57.36L91.24 1.5H1.5L46.37 57.36Z" stroke="white" stroke-width="3" stroke-miterlimit="10" stroke-linecap="round" stroke-linejoin="round"/>
<path d="M74.0099 61.2C73.2599 62.27 72.4999 63.37 72.1099 64.62C71.7199 65.87 71.7599 67.3199 72.5399 68.3799C73.2099 69.2999 74.3699 69.86 74.8199 70.9C75.0699 71.48 75.0599 72.14 74.9599 72.76C74.6699 74.41 73.6599 75.92 72.2399 76.82" stroke="white" stroke-width="3" stroke-miterlimit="10" stroke-linecap="round" stroke-linejoin="round"/>
<path d="M85.9096 50.3C85.1196 51.76 84.3296 53.2501 83.9496 54.8601C83.5796 56.4801 83.6696 58.27 84.5696 59.67C85.3196 60.83 86.5696 61.63 87.1896 62.87C87.8196 64.13 87.6896 65.6701 87.1596 66.9701C86.6296 68.2701 85.7396 69.4001 84.8696 70.5101" stroke="white" stroke-width="3" stroke-miterlimit="10" stroke-linecap="round" stroke-linejoin="round"/>
<path d="M98.5999 54.48C97.7599 55.57 96.8999 56.69 96.4899 58.01C96.0799 59.32 96.1899 60.89 97.1299 61.9C97.6299 62.44 98.3199 62.78 98.8099 63.33C99.7299 64.38 99.7099 66 99.1399 67.27C98.5699 68.54 97.5399 69.54 96.5299 70.5" stroke="white" stroke-width="3" stroke-miterlimit="10" stroke-linecap="round" stroke-linejoin="round"/>
<path d="M67.96 99L78.57 113.3" stroke="white" stroke-width="3" stroke-miterlimit="10" stroke-linecap="round" stroke-linejoin="round"/>
<path d="M75.0898 85.86L87.5 103" stroke="white" stroke-width="3" stroke-miterlimit="10" stroke-linecap="round" stroke-linejoin="round"/>
<path d="M107 84L119.41 101.14" stroke="white" stroke-width="3" stroke-miterlimit="10" stroke-linecap="round" stroke-linejoin="round"/>
<path d="M104 103L109.02 110.06" stroke="white" stroke-width="3" stroke-miterlimit="10" stroke-linecap="round" stroke-linejoin="round"/>
<path d="M87.5 79L95.5 90" stroke="white" stroke-width="3" stroke-miterlimit="10" stroke-linecap="round" stroke-linejoin="round"/>
<path d="M55.0596 100.89C55.0596 98.47 55.5396 96.05 57.7396 94.7C60.2696 93.15 63.4196 93.32 66.1896 92.5C70.1096 91.34 72.3896 88.72 75.0796 85.87C83.5996 76.83 98.4496 74.68 109.75 79.13C116.01 81.6 121.68 86.94 121.39 94.19" stroke="white" stroke-width="3" stroke-miterlimit="10" stroke-linecap="round" stroke-linejoin="round"/>
<path d="M97.0596 114.75C74.1596 114.75 55.0596 108.55 55.0596 100.89V112.63C55.0596 119.98 74.1596 125.93 97.0596 125.93C110.51 125.93 121.4 119.46 121.4 111.46V94.1801C121.4 105.55 110.51 114.75 97.0596 114.75Z" stroke="white" stroke-width="3" stroke-miterlimit="10" stroke-linecap="round" stroke-linejoin="round"/>
<path d="M98.3795 98.0001C101.776 98.0001 104.529 96.2898 104.529 94.1801C104.529 92.0704 101.776 90.3601 98.3795 90.3601C94.9829 90.3601 92.2295 92.0704 92.2295 94.1801C92.2295 96.2898 94.9829 98.0001 98.3795 98.0001Z" stroke="white" stroke-width="3" stroke-miterlimit="10" stroke-linecap="round" stroke-linejoin="round"/>
</g>
<defs>
<clipPath id="clip0">
<rect width="122.91" height="127.43" fill="white"/>
</clipPath>
</defs>
</svg>
