<svg width="98" height="115" viewBox="0 0 98 115" fill="none" xmlns="http://www.w3.org/2000/svg">
<g filter="url(#filter0_d)">
<path d="M49 100.333L48.4453 101.165C48.7812 101.389 49.2188 101.389 49.5547 101.165L49 100.333ZM76.5772 16.4228L75.8701 17.1299L76.5772 16.4228ZM21.4228 16.4228L22.1299 17.1299L21.4228 16.4228ZM87 44C87 58.7647 77.4843 72.6043 67.774 82.8539C62.9394 87.9572 58.1013 92.1236 54.4708 95.0146C52.6564 96.4594 51.1455 97.5841 50.0903 98.3462C49.5627 98.7272 49.1492 99.0176 48.8686 99.2119C48.7284 99.309 48.6214 99.3821 48.55 99.4306C48.5143 99.4548 48.4876 99.4729 48.47 99.4847C48.4613 99.4906 48.4548 99.4949 48.4506 99.4977C48.4486 99.4991 48.4471 99.5001 48.4462 99.5007C48.4458 99.501 48.4455 99.5011 48.4453 99.5013C48.4452 99.5013 48.4453 99.5013 49 100.333C49.5547 101.165 49.5551 101.165 49.5556 101.165C49.556 101.165 49.5566 101.164 49.5574 101.164C49.5588 101.163 49.5609 101.161 49.5636 101.159C49.5689 101.156 49.5765 101.151 49.5865 101.144C49.6064 101.131 49.6356 101.111 49.6737 101.085C49.75 101.033 49.862 100.957 50.0074 100.856C50.2981 100.655 50.7224 100.357 51.2613 99.9676C52.3388 99.1893 53.8749 98.0458 55.7167 96.5792C59.3987 93.6472 64.3106 89.4178 69.226 84.2294C79.0157 73.8958 89 59.5686 89 44H87ZM75.8701 17.1299C82.9964 24.2563 87 33.9218 87 44H89C89 33.3913 84.7857 23.2172 77.2843 15.7157L75.8701 17.1299ZM49 6C59.0782 6 68.7437 10.0036 75.8701 17.1299L77.2843 15.7157C69.7828 8.21427 59.6087 4 49 4V6ZM22.1299 17.1299C29.2563 10.0036 38.9218 6 49 6V4C38.3913 4 28.2172 8.21427 20.7157 15.7157L22.1299 17.1299ZM11 44C11 33.9218 15.0036 24.2563 22.1299 17.1299L20.7157 15.7157C13.2143 23.2172 9 33.3913 9 44H11ZM49 100.333C49.5547 99.5013 49.5548 99.5013 49.5547 99.5013C49.5545 99.5011 49.5542 99.501 49.5538 99.5007C49.5529 99.5001 49.5514 99.4991 49.5494 99.4977C49.5452 99.4949 49.5387 99.4906 49.53 99.4847C49.5124 99.4729 49.4857 99.4548 49.45 99.4306C49.3786 99.3821 49.2716 99.309 49.1314 99.2119C48.8508 99.0176 48.4373 98.7272 47.9097 98.3462C46.8545 97.5841 45.3436 96.4594 43.5292 95.0146C39.8987 92.1236 35.0606 87.9572 30.226 82.8539C20.5157 72.6043 11 58.7647 11 44H9C9 59.5686 18.9843 73.8958 28.774 84.2294C33.6894 89.4178 38.6013 93.6472 42.2833 96.5792C44.1251 98.0458 45.6612 99.1893 46.7387 99.9676C47.2776 100.357 47.7019 100.655 47.9926 100.856C48.138 100.957 48.25 101.033 48.3263 101.085C48.3644 101.111 48.3936 101.131 48.4135 101.144C48.4235 101.151 48.4311 101.156 48.4364 101.159C48.4391 101.161 48.4412 101.163 48.4426 101.164C48.4434 101.164 48.444 101.165 48.4444 101.165C48.4449 101.165 48.4453 101.165 49 100.333ZM49 62.667C59.4934 62.667 68 54.1604 68 43.667H66C66 53.0558 58.3888 60.667 49 60.667V62.667ZM30 43.667C30 54.1604 38.5066 62.667 49 62.667V60.667C39.6112 60.667 32 53.0558 32 43.667H30ZM49 24.667C38.5066 24.667 30 33.1736 30 43.667H32C32 34.2782 39.6112 26.667 49 26.667V24.667ZM68 43.667C68 33.1736 59.4934 24.667 49 24.667V26.667C58.3888 26.667 66 34.2782 66 43.667H68Z" fill="white"/>
</g>
<defs>
<filter id="filter0_d" x="0.972222" y="0.694445" width="96.0556" height="113.389" filterUnits="userSpaceOnUse" color-interpolation-filters="sRGB">
<feFlood flood-opacity="0" result="BackgroundImageFix"/>
<feColorMatrix in="SourceAlpha" type="matrix" values="0 0 0 0 0 0 0 0 0 0 0 0 0 0 0 0 0 0 127 0"/>
<feOffset dy="4.72222"/>
<feGaussianBlur stdDeviation="4.01389"/>
<feColorMatrix type="matrix" values="0 0 0 0 0.432161 0 0 0 0 0.192865 0 0 0 0 0 0 0 0 0.110987 0"/>
<feBlend mode="normal" in2="BackgroundImageFix" result="effect1_dropShadow"/>
<feBlend mode="normal" in="SourceGraphic" in2="effect1_dropShadow" result="shape"/>
</filter>
</defs>
</svg>
