<svg width="162" height="24" viewBox="0 0 162 24" fill="none" xmlns="http://www.w3.org/2000/svg">
<path fill-rule="evenodd" clip-rule="evenodd" d="M14.8045 3.39116H11.6754L2.81534 18.8238H0V23.6596H26.9898V18.8238H23.7125L14.8045 3.39116ZM8.21505 18.8238L13.24 9.94217L18.3085 18.8238H8.21505ZM63.6067 4.07201H57.8279L50.9115 12.8838V4.07201H46.2222V12.8402L39.2579 4.07201H33.4704L40.9576 13.3595L33.1871 23.9956H38.7785L44.2741 16.4495L46.2179 16.8642V24H50.9072V16.8642L52.803 16.4495L58.2986 23.9956H63.89L56.1195 13.3595L63.6067 4.07201ZM76.9208 15.7687H86.0641V11.4872H76.9208V8.49318H90.8537V4.024H72.0441V24H91.612V19.4828H76.9252V15.7687H76.9208ZM115.826 10.9198H105.449V4.024H100.568V24H105.449V15.677H115.826V24H120.707V4.024H115.826V10.9198ZM128.857 8.63721H136.392V24H141.273V8.63721H148.808V4.024H128.861V8.63721H128.857ZM160.758 1.32679C159.93 0.440811 158.928 0 157.755 0C156.587 0 155.594 0.440811 154.77 1.32679C153.942 2.21713 153.528 3.28642 153.528 4.53901C153.528 5.80469 153.937 6.8827 154.757 7.76868C155.58 8.66339 156.579 9.10857 157.755 9.10857C158.928 9.10857 159.93 8.66339 160.758 7.76868C161.586 6.87398 162 5.80033 162 4.53901C162 3.28205 161.586 2.21277 160.758 1.32679ZM160.335 7.33661C159.625 8.10475 158.766 8.48882 157.755 8.48882C156.744 8.48882 155.881 8.10475 155.175 7.33661C154.469 6.56847 154.121 5.63448 154.121 4.54337C154.121 3.46099 154.474 2.53574 155.184 1.77196C155.894 1.00382 156.753 0.619755 157.76 0.619755C158.766 0.619755 159.629 1.00382 160.34 1.77196C161.05 2.53574 161.403 3.46099 161.403 4.54337C161.399 5.63884 161.046 6.56847 160.335 7.33661ZM159.603 6.70376C159.594 6.57283 159.59 6.44627 159.59 6.33279V5.96618C159.59 5.71304 159.507 5.45554 159.337 5.19367C159.167 4.92744 158.901 4.76596 158.54 4.70486C158.827 4.65685 159.05 4.57393 159.211 4.46481C159.512 4.25532 159.664 3.92362 159.664 3.47845C159.664 2.84997 159.424 2.42663 158.941 2.21277C158.67 2.09493 158.248 2.03383 157.672 2.03383H156.047V7.03109H156.866V5.06274H157.511C157.947 5.06274 158.252 5.11511 158.422 5.22422C158.714 5.41189 158.862 5.7916 158.862 6.36771V6.76486L158.88 6.92635C158.884 6.94817 158.888 6.96563 158.893 6.98309C158.897 7.00054 158.901 7.018 158.906 7.03109H159.673L159.642 6.96999C159.625 6.92198 159.612 6.83906 159.603 6.70376ZM158.391 4.32952C158.217 4.40371 157.956 4.44299 157.611 4.44299H156.87V2.63176H157.572C158.025 2.63176 158.357 2.69286 158.566 2.81942C158.771 2.94163 158.875 3.18604 158.875 3.55265C158.871 3.93236 158.71 4.19422 158.391 4.32952Z" fill="white"/>
</svg>
