<svg width="161" height="124" viewBox="0 0 161 124" fill="none" xmlns="http://www.w3.org/2000/svg">
<path fill-rule="evenodd" clip-rule="evenodd" d="M122.66 75.9886L79.7938 67.9405L67.3286 58.8789L83.5057 53.9929L134.06 69.2876L98.8252 53.4601L72.4524 13.4754L100.917 50.0555L132.05 57.848L103.412 40.3441L122.396 40.1665L93.9526 27.1155L111.97 28.3847L86.7238 17.1789L102.485 16.7761L67.1986 3.05803L47.1928 0.0129395L50.3979 4.80798L46.4348 8.24291L42.0603 15.1561L43.1647 18.0756L36.1178 33.6908L37.0361 39.4128L42.8529 40.0583L45.8414 37.7452L46.1836 35.0899L56.2623 29.4546L57.9515 25.6515L60.3943 39.6511L49.7568 48.847L49.1981 56.1933L41.3326 59.2731L33.9262 73.5629L39.977 84.6474L45.1831 86.8998L47.1018 73.9181L42.5194 72.7096L42.6147 68.4776L122.66 75.9886ZM35.4465 66.8966L39.2623 58.9699L30.5652 60.0527L14.5744 72.1638L10.9102 80.2985L25.0906 79.6921L24.4582 73.2294L28.4429 67.5593L35.4465 66.8966Z" fill="#F77F22"/>
<path fill-rule="evenodd" clip-rule="evenodd" d="M84.2367 57.1376L73.1184 58.9958L138.572 75.3518L84.2367 57.1376ZM37.0351 39.4171L50.3709 4.7906L46.4641 8.1952L42.0723 15.1214L43.1681 18.0409L36.1082 33.6865L37.0351 39.4171ZM33.9079 73.5845L49.2144 56.1889L41.323 59.273L33.9079 73.5845ZM24.4919 73.1514L28.4159 67.5463L30.5512 60.0614L14.582 72.1768L24.4919 73.1514ZM67.215 3.06663L47.2178 0.0172119L60.2244 6.78312L67.215 3.06663ZM86.7618 17.1659L72.4991 13.4927L103.394 40.2791L86.7618 17.1659ZM98.7722 53.4644L88.308 43.4238L83.5263 53.9798L98.7722 53.4644ZM60.402 39.6857L49.7515 48.8383L79.2558 43.3588L60.402 39.6857Z" fill="#FFB448"/>
<path fill-rule="evenodd" clip-rule="evenodd" d="M73.5028 84.2446L115.858 79.6098L61.618 75.6161L73.5028 84.2446ZM60.1887 6.79622L47.208 0L50.3698 4.77771L60.1887 6.79622ZM72.485 13.4798L67.3395 23.5204L98.7841 53.4861L72.485 13.4798ZM111.838 28.3328L86.7693 17.14L93.9288 27.1372L111.838 28.3328ZM42.5996 68.4647L122.164 75.915L79.7094 67.9189L42.5996 68.4647ZM45.181 86.8998L47.104 73.9225L39.9922 84.6517L45.181 86.8998ZM105.853 46.7462L132.026 57.8827L103.479 40.3485L105.853 46.7462ZM46.1469 35.0467L56.2862 29.394L59.4957 22.1863L44.4403 32.1792L42.8161 40.0366L45.835 37.7409L46.1469 35.0467Z" fill="#D3630C"/>
<path fill-rule="evenodd" clip-rule="evenodd" d="M10.9219 80.2638L25.0763 79.6747L24.4656 73.147L10.9219 80.2638ZM42.5917 68.4603L67.362 58.9092L49.1925 56.1889L42.5917 68.4603ZM67.1974 3.03198L60.1851 6.78312L102.445 16.7544L67.1974 3.03198ZM72.4988 13.484L100.89 50.0208L103.48 40.3701L72.4988 13.484Z" fill="#EC5E00"/>
<path fill-rule="evenodd" clip-rule="evenodd" d="M51.7293 13.9261L44.4139 32.2572L72.5148 13.4756L51.7293 13.9261ZM67.2957 58.905L79.1849 43.3504L61.8773 46.5817L67.2957 58.905ZM40.009 84.5869L42.5211 72.7227L33.9453 73.5284L40.009 84.5869ZM67.339 23.4685L60.3744 39.6556L79.2239 43.3114L67.339 23.4685Z" fill="#F36D01"/>
<path fill-rule="evenodd" clip-rule="evenodd" d="M14.7131 103.178H11.6033L2.79797 118.494H0V123.293H26.8232V118.494H23.5662L14.7131 103.178ZM8.16434 118.494L13.1582 109.679L18.1954 118.494H8.16434ZM63.2141 103.853H57.4709L50.5973 112.599V103.853H45.9369V112.555L39.0156 103.853H33.2637L40.7048 113.071L32.9822 123.627H38.5392L44.0008 116.138L45.9326 116.549V123.631H50.5929V116.549L52.477 116.138L57.9387 123.627H63.4956L55.7731 113.071L63.2141 103.853ZM76.446 115.462H85.5329V111.213H76.446V108.241H90.2929V103.806H71.5993V123.631H91.0465V119.148H76.4503V115.462H76.446ZM115.111 110.65H104.798V103.806H99.9472V123.631H104.798V115.371H115.111V123.631H119.962V103.806H115.111V110.65ZM128.061 108.384H135.55V123.631H140.401V108.384H147.889V103.806H128.065V108.384H128.061ZM159.766 101.129C158.943 100.25 157.947 99.812 156.781 99.812C155.621 99.812 154.633 100.25 153.815 101.129C152.992 102.012 152.58 103.074 152.58 104.317C152.58 105.573 152.987 106.643 153.802 107.522C154.62 108.41 155.612 108.852 156.781 108.852C157.947 108.852 158.943 108.41 159.766 107.522C160.589 106.634 161 105.569 161 104.317C161 103.069 160.589 102.008 159.766 101.129ZM159.345 107.093C158.639 107.856 157.786 108.237 156.781 108.237C155.777 108.237 154.919 107.856 154.217 107.093C153.516 106.331 153.169 105.404 153.169 104.321C153.169 103.247 153.52 102.329 154.226 101.571C154.932 100.808 155.785 100.427 156.786 100.427C157.786 100.427 158.644 100.808 159.35 101.571C160.056 102.329 160.407 103.247 160.407 104.321C160.402 105.408 160.051 106.331 159.345 107.093ZM158.618 106.465C158.609 106.335 158.605 106.21 158.605 106.097V105.733C158.605 105.482 158.523 105.226 158.354 104.967C158.185 104.702 157.921 104.542 157.561 104.481C157.847 104.434 158.068 104.351 158.228 104.243C158.527 104.035 158.678 103.706 158.678 103.264C158.678 102.641 158.44 102.22 157.959 102.008C157.691 101.891 157.271 101.831 156.699 101.831H155.084V106.79H155.898V104.837H156.539C156.972 104.837 157.275 104.889 157.444 104.997C157.734 105.183 157.882 105.56 157.882 106.132V106.526L157.899 106.686C157.903 106.708 157.908 106.725 157.912 106.743C157.916 106.76 157.921 106.777 157.925 106.79H158.687L158.657 106.73C158.639 106.682 158.626 106.6 158.618 106.465ZM157.414 104.109C157.241 104.183 156.981 104.222 156.638 104.222H155.902V102.424H156.599C157.05 102.424 157.379 102.485 157.587 102.61C157.791 102.731 157.895 102.974 157.895 103.338C157.89 103.715 157.73 103.975 157.414 104.109Z" fill="white"/>
</svg>
