<svg width="23" height="23" viewBox="0 0 23 23" fill="none" xmlns="http://www.w3.org/2000/svg">
<g clip-path="url(#clip0)">
<path fill-rule="evenodd" clip-rule="evenodd" d="M11.5 22.0416C11.5 22.0416 20.125 16.2916 20.125 9.58325C20.125 7.29576 19.2163 5.10196 17.5988 3.48446C15.9813 1.86695 13.7875 0.958252 11.5 0.958252C9.21251 0.958252 7.0187 1.86695 5.4012 3.48446C3.7837 5.10196 2.875 7.29576 2.875 9.58325C2.875 16.2916 11.5 22.0416 11.5 22.0416ZM15.9722 9.58325C15.9722 12.0532 13.9699 14.0555 11.5 14.0555C9.03006 14.0555 7.02778 12.0532 7.02778 9.58325C7.02778 7.11331 9.03006 5.11103 11.5 5.11103C13.9699 5.11103 15.9722 7.11331 15.9722 9.58325Z" fill="white"/>
<path d="M11.5 22.0416L10.9453 22.8736C11.2812 23.0976 11.7188 23.0976 12.0547 22.8736L11.5 22.0416ZM17.5988 3.48446L18.3059 2.77735L17.5988 3.48446ZM5.4012 3.48446L4.6941 2.77735L5.4012 3.48446ZM19.125 9.58325C19.125 12.5355 17.203 15.4063 15.0865 17.6403C14.0488 18.7357 13.0076 19.6327 12.2247 20.256C11.8341 20.5671 11.5098 20.8085 11.2851 20.9707C11.1728 21.0518 11.0856 21.1131 11.0275 21.1533C10.9985 21.1734 10.9768 21.1882 10.9629 21.1977C10.9559 21.2024 10.951 21.2057 10.948 21.2077C10.9465 21.2087 10.9456 21.2094 10.9451 21.2097C10.9449 21.2098 10.9448 21.2099 10.9448 21.2099C10.9448 21.2098 10.945 21.2098 10.945 21.2098C10.9451 21.2097 10.9453 21.2095 11.5 22.0416C12.0547 22.8736 12.055 22.8735 12.0552 22.8733C12.0554 22.8732 12.0557 22.873 12.056 22.8728C12.0565 22.8724 12.0572 22.872 12.058 22.8714C12.0597 22.8703 12.0618 22.8689 12.0645 22.8671C12.0698 22.8635 12.0772 22.8585 12.0866 22.8521C12.1054 22.8394 12.1321 22.8211 12.1662 22.7975C12.2345 22.7502 12.3326 22.6813 12.4561 22.5921C12.7031 22.4137 13.0526 22.1534 13.4706 21.8206C14.3049 21.1562 15.42 20.1964 16.5385 19.0158C18.7345 16.6978 21.125 13.3394 21.125 9.58325H19.125ZM16.8917 4.19156C18.3217 5.62153 19.125 7.56098 19.125 9.58325H21.125C21.125 7.03054 20.1109 4.58239 18.3059 2.77735L16.8917 4.19156ZM11.5 1.95825C13.5223 1.95825 15.4617 2.7616 16.8917 4.19156L18.3059 2.77735C16.5009 0.972311 14.0527 -0.041748 11.5 -0.041748V1.95825ZM6.10831 4.19156C7.53828 2.7616 9.47772 1.95825 11.5 1.95825V-0.041748C8.94729 -0.041748 6.49913 0.972311 4.6941 2.77735L6.10831 4.19156ZM3.875 9.58325C3.875 7.56098 4.67835 5.62153 6.10831 4.19156L4.6941 2.77735C2.88906 4.58239 1.875 7.03054 1.875 9.58325H3.875ZM11.5 22.0416C12.0547 21.2095 12.0549 21.2097 12.055 21.2098C12.055 21.2098 12.0552 21.2098 12.0552 21.2099C12.0552 21.2099 12.0551 21.2098 12.0549 21.2097C12.0544 21.2094 12.0535 21.2087 12.052 21.2077C12.049 21.2057 12.0441 21.2024 12.0371 21.1977C12.0232 21.1882 12.0015 21.1734 11.9725 21.1533C11.9144 21.1131 11.8272 21.0518 11.7149 20.9707C11.4902 20.8085 11.1659 20.5671 10.7753 20.256C9.99242 19.6327 8.95124 18.7357 7.91345 17.6403C5.79699 15.4063 3.875 12.5355 3.875 9.58325H1.875C1.875 13.3394 4.26551 16.6978 6.46155 19.0158C7.58001 20.1964 8.69508 21.1562 9.52942 21.8206C9.94738 22.1534 10.2969 22.4137 10.5439 22.5921C10.6674 22.6813 10.7655 22.7502 10.8338 22.7975C10.8679 22.8211 10.8946 22.8394 10.9134 22.8521C10.9228 22.8585 10.9302 22.8635 10.9355 22.8671C10.9382 22.8689 10.9403 22.8703 10.942 22.8714C10.9428 22.872 10.9435 22.8724 10.944 22.8728C10.9443 22.873 10.9446 22.8732 10.9448 22.8733C10.945 22.8735 10.9453 22.8736 11.5 22.0416ZM11.5 15.0555C14.5222 15.0555 16.9722 12.6055 16.9722 9.58325H14.9722C14.9722 11.5009 13.4177 13.0555 11.5 13.0555V15.0555ZM6.02778 9.58325C6.02778 12.6055 8.47778 15.0555 11.5 15.0555V13.0555C9.58234 13.0555 8.02778 11.5009 8.02778 9.58325H6.02778ZM11.5 4.11103C8.47778 4.11103 6.02778 6.56103 6.02778 9.58325H8.02778C8.02778 7.6656 9.58234 6.11103 11.5 6.11103V4.11103ZM16.9722 9.58325C16.9722 6.56103 14.5222 4.11103 11.5 4.11103V6.11103C13.4177 6.11103 14.9722 7.6656 14.9722 9.58325H16.9722Z" fill="white"/>
</g>
<defs>
<clipPath id="clip0">
<rect width="23" height="23" fill="white"/>
</clipPath>
</defs>
</svg>
