<svg width="119" height="97" viewBox="0 0 119 97" fill="none" xmlns="http://www.w3.org/2000/svg">
<path d="M16.8196 81.0429L17.616 81.6476L18.1828 80.901L17.4745 80.2871L16.8196 81.0429ZM2.95859 93.2642L3.12862 94.2496L3.12862 94.2496L2.95859 93.2642ZM31.8929 90.4451L32.2915 89.528L31.7739 89.303L31.3138 89.6299L31.8929 90.4451ZM116.509 48.5C116.509 74.0001 91.0761 95 59.2547 95V97C91.7797 97 118.509 75.4669 118.509 48.5H116.509ZM59.2547 2C91.0761 2 116.509 22.9999 116.509 48.5H118.509C118.509 21.5331 91.7797 0 59.2547 0V2ZM2 48.5C2 22.9999 27.4334 2 59.2547 2V0C26.7297 0 0 21.5331 0 48.5H2ZM17.4745 80.2871C7.8474 71.9441 2 60.7576 2 48.5H0C0 61.4289 6.17321 73.1397 16.1647 81.7986L17.4745 80.2871ZM16.0231 80.4382C15.2915 81.4018 13.1083 84.2027 10.4981 86.8617C9.19247 88.1918 7.79835 89.4673 6.44084 90.4565C5.06418 91.4596 3.81416 92.1018 2.78856 92.2787L3.12862 94.2496C4.60857 93.9942 6.15847 93.1369 7.61866 92.0729C9.09801 90.9949 10.5777 89.6356 11.9254 88.2628C14.6219 85.5159 16.8637 82.6384 17.616 81.6476L16.0231 80.4382ZM2.78857 92.2787C2.60805 92.3099 2.43878 92.346 2.28929 92.3898C2.16054 92.4275 1.96182 92.4943 1.78126 92.6212C1.68864 92.6863 1.53668 92.8114 1.42728 93.0187C1.30097 93.258 1.26317 93.5507 1.35442 93.8364C1.43406 94.0857 1.58491 94.2453 1.67895 94.3284C1.77815 94.4161 1.87811 94.4751 1.95109 94.5131C2.21046 94.6483 2.55482 94.7324 2.86151 94.7935C3.20149 94.8613 3.62022 94.9234 4.09904 94.9793C6.00985 95.2024 9.08956 95.3506 12.5599 95.2945C16.0325 95.2383 19.9339 94.9769 23.4823 94.3688C26.9965 93.7665 30.3006 92.8029 32.4721 91.2603L31.3138 89.6299C29.5248 90.9007 26.5946 91.8062 23.1445 92.3975C19.7285 92.9829 15.9356 93.2396 12.5275 93.2947C9.11709 93.3499 6.12977 93.2028 4.33097 92.9928C3.88239 92.9404 3.52107 92.8856 3.25244 92.8321C2.95053 92.7719 2.85775 92.7303 2.87555 92.7396C2.88813 92.7462 2.93993 92.7737 3.00356 92.8299C3.06203 92.8816 3.18992 93.0097 3.25958 93.2278C3.34084 93.4822 3.30602 93.7438 3.19605 93.9522C3.10299 94.1285 2.98074 94.2227 2.93155 94.2573C2.83785 94.3232 2.78091 94.3298 2.85188 94.309C2.90212 94.2943 2.99051 94.2734 3.12862 94.2496L2.78857 92.2787ZM59.2547 95C49.5 95 40.3217 93.0179 32.2915 89.528L31.4943 91.3622C39.78 94.9632 49.23 97 59.2547 97V95Z" fill="white"/>
<path d="M59.1923 57.4552C64.3161 57.4552 68.4706 53.3034 68.4706 48.181H66.4706C66.4706 52.1979 63.2124 55.4552 59.1923 55.4552V57.4552ZM49.914 48.181C49.914 53.3034 54.0685 57.4552 59.1923 57.4552V55.4552C55.1721 55.4552 51.914 52.1979 51.914 48.181H49.914ZM59.1923 38.9068C54.0685 38.9068 49.914 43.0585 49.914 48.181H51.914C51.914 44.164 55.1721 40.9068 59.1923 40.9068V38.9068ZM68.4706 48.181C68.4706 43.0585 64.3161 38.9068 59.1923 38.9068V40.9068C63.2124 40.9068 66.4706 44.164 66.4706 48.181H68.4706ZM34.664 57.4557C39.7878 57.4557 43.9423 53.3039 43.9423 48.1815H41.9423C41.9423 52.1984 38.6842 55.4557 34.664 55.4557V57.4557ZM25.3857 48.1815C25.3857 53.3039 29.5402 57.4557 34.664 57.4557V55.4557C30.6439 55.4557 27.3857 52.1984 27.3857 48.1815H25.3857ZM34.664 38.9073C29.5402 38.9073 25.3857 43.059 25.3857 48.1815H27.3857C27.3857 44.1645 30.6439 40.9073 34.664 40.9073V38.9073ZM43.9423 48.1815C43.9423 43.059 39.7878 38.9073 34.664 38.9073V40.9073C38.6842 40.9073 41.9423 44.1645 41.9423 48.1815H43.9423ZM90.9988 48.181C90.9988 52.1979 87.7407 55.4552 83.7205 55.4552V57.4552C88.8443 57.4552 92.9988 53.3034 92.9988 48.181H90.9988ZM83.7205 40.9068C87.7407 40.9068 90.9988 44.164 90.9988 48.181H92.9988C92.9988 43.0585 88.8443 38.9068 83.7205 38.9068V40.9068ZM76.4422 48.181C76.4422 44.164 79.7003 40.9068 83.7205 40.9068V38.9068C78.5967 38.9068 74.4422 43.0585 74.4422 48.181H76.4422ZM83.7205 55.4552C79.7003 55.4552 76.4422 52.1979 76.4422 48.181H74.4422C74.4422 53.3034 78.5967 57.4552 83.7205 57.4552V55.4552Z" fill="white"/>
</svg>
