<svg width="167" height="140" viewBox="0 0 167 140" fill="none" xmlns="http://www.w3.org/2000/svg">
<path d="M13.5844 93.4113C20.2481 98.0145 27.1952 102.418 34.9513 104.745C42.7074 107.073 51.4432 107.129 58.5693 103.285C59.4839 102.79 60.3796 102.225 61.0613 101.43C62.8383 99.3672 62.7333 96.3165 62.4653 93.605C62.238 91.3819 61.3298 88.8946 61.3681 86.6588C61.3978 84.8456 62.5815 83.2989 63.4629 81.7181C64.3442 80.1374 64.9368 78.0583 63.8595 76.5998C63.105 75.584 61.7825 75.2049 60.5664 74.8536C58.5923 74.2786 56.6434 73.5771 54.7527 72.7655C53.5365 72.2497 52.1153 71.6568 51.4696 70.5246C50.9948 69.6897 51.1133 68.6673 51.628 67.8522C52.3045 66.7701 53.4405 66.1547 54.5386 65.5646C57.1016 64.1945 59.6647 62.8245 62.2277 61.4544C64.7325 60.1122 67.4372 58.5599 68.451 55.9035C69.5949 52.8916 68.2371 49.3606 66.834 46.4522L76.3442 39.6461C78.4099 38.1636 78.9605 35.3392 77.5905 33.1874C71.2841 23.3165 64.9025 11.9436 60.0144 1.74066" stroke="white" stroke-width="3" stroke-miterlimit="10" stroke-linecap="round" stroke-linejoin="round"/>
<path d="M14.379 123.94C16.3407 115.315 20.4956 107.7 26.7313 101.427" stroke="white" stroke-width="3" stroke-miterlimit="10" stroke-linecap="round" stroke-linejoin="round"/>
<path d="M165.284 121.78C163.72 117.285 162.168 112.798 160.604 108.304C156.867 97.5191 153.073 86.6406 147.199 76.8516C145.68 74.3137 143.985 71.8257 141.754 69.8794C137.655 66.3139 131.6 65.332 128.453 60.8967C125.092 56.1625 121.375 51.479 117.661 47.0148C109.139 44.913 100.19 44.5816 91.539 46.0446C90.2903 46.2586 89.0244 46.5176 87.9557 47.1903C86.8871 47.8631 86.0538 49.0489 86.1305 50.3065C86.3388 53.7557 90.6757 55.4447 94.033 56.252C95.9961 56.725 98.176 55.8471 100.133 55.3822C102.788 56.9185 105.66 58.273 110.759 58.0668C112.57 63.5006 115.245 68.779 118.599 73.4155C120.741 76.3866 121.15 80.2985 121.876 83.8808C122.09 84.9195 122.31 85.9766 122.198 87.0278C121.566 93.084 118.009 93.2629 117.799 93.2625C114.523 93.2716 111.439 91.6671 108.784 89.7411C106.13 87.8151 103.747 85.5119 100.972 83.7601C99.1106 82.5886 97.003 81.6769 94.8051 81.6803C90.9904 81.6923 87.5686 84.6413 86.3447 88.2567C90.5533 91.9611 94.8814 95.9814 99.0901 99.6858C100.556 100.979 102.022 102.273 103.563 103.475C105.773 105.208 108.116 106.772 110.252 108.595C115.497 113.065 119.692 119.262 126.242 121.423C128.171 122.056 130.22 122.305 132.243 122.141C135.555 121.872 138.61 121.615 141.782 120.606" stroke="white" stroke-width="3" stroke-miterlimit="10" stroke-linecap="round" stroke-linejoin="round"/>
<path d="M133.71 130.171C133.471 127.53 132.883 124.928 131.97 122.448" stroke="white" stroke-width="3" stroke-miterlimit="10" stroke-linecap="round" stroke-linejoin="round"/>
<path d="M98.9027 72.6224L98.7651 63.0762C98.7118 59.4331 95.7181 56.5238 92.075 56.577L88.0846 56.6389C84.4415 56.6922 81.5321 59.6859 81.5854 63.3289L81.723 72.8751" stroke="white" stroke-width="3" stroke-miterlimit="10" stroke-linecap="round" stroke-linejoin="round"/>
<path d="M98.9027 72.6225C98.9134 73.1891 95.0818 73.7057 90.3332 73.7726C85.5846 73.8394 81.743 73.4393 81.7296 72.8634" stroke="white" stroke-width="3" stroke-miterlimit="10" stroke-linecap="round" stroke-linejoin="round"/>
<path d="M98.9038 72.6225L99.041 82.3787" stroke="white" stroke-width="3" stroke-miterlimit="10" stroke-linecap="round" stroke-linejoin="round"/>
<path d="M99.3147 100.482L99.3893 105.928C99.413 107.28 95.5828 108.436 90.8434 108.5C86.0947 108.567 82.2426 107.53 82.2189 106.178L81.7324 72.8725" stroke="white" stroke-width="3" stroke-miterlimit="10" stroke-linecap="round" stroke-linejoin="round"/>
<path d="M70.2165 64.8628L70.2575 68.7092L76.9663 66.7073L70.2165 64.8628Z" fill="#E3AC33"/>
<path d="M76.9331 63.3484L70.1694 60.5383L72.055 57.6349L76.9331 63.3484Z" fill="#E3AC33"/>
<path d="M77.0019 70.0757L70.3044 73.0339L72.2653 75.8962L77.0019 70.0757Z" fill="#E3AC33"/>
</svg>
