<svg width="131" height="134" viewBox="0 0 131 134" fill="none" xmlns="http://www.w3.org/2000/svg">
<g clip-path="url(#clip0)">
<path d="M32.2401 107.74C6.84011 94.88 -5.1799 64.62 5.2701 37.49C16.4101 8.55002 48.9101 -5.87998 77.8501 5.27002C106.79 16.42 121.22 48.91 110.07 77.86" stroke="white" stroke-width="3" stroke-miterlimit="10" stroke-linecap="round" stroke-linejoin="round"/>
<path d="M129.08 78.39H85.9502C85.9502 83.31 81.9602 87.29 77.0502 87.29C72.1302 87.29 68.1502 83.3 68.1502 78.39H25.0202C25.0102 78.77 24.9902 79.15 24.9902 79.53C24.9902 108.28 48.3002 131.59 77.0502 131.59C105.8 131.59 129.11 108.28 129.11 79.53C129.11 79.15 129.09 78.77 129.08 78.39Z" stroke="white" stroke-width="3" stroke-miterlimit="10" stroke-linecap="round" stroke-linejoin="round"/>
<path d="M119.12 79.21C119.12 102.45 100.28 121.28 77.0505 121.28C53.8205 121.28 34.9805 102.44 34.9805 79.21" stroke="white" stroke-width="3" stroke-miterlimit="10" stroke-linecap="round" stroke-linejoin="round"/>
<path d="M77.0498 87.3V121.28" stroke="white" stroke-width="3" stroke-miterlimit="10" stroke-linecap="round" stroke-linejoin="round"/>
<path d="M47 108.64L71.02 84.9301" stroke="white" stroke-width="3" stroke-miterlimit="10" stroke-linecap="round" stroke-linejoin="round"/>
<path d="M106.29 107.1L83.8398 84.9301" stroke="white" stroke-width="3" stroke-miterlimit="10" stroke-linecap="round" stroke-linejoin="round"/>
<path d="M25.3504 38.86C27.3718 38.86 29.0104 37.2214 29.0104 35.2C29.0104 33.1787 27.3718 31.54 25.3504 31.54C23.3291 31.54 21.6904 33.1787 21.6904 35.2C21.6904 37.2214 23.3291 38.86 25.3504 38.86Z" fill="#E3AC33"/>
<path d="M16.3797 59.17C18.4011 59.17 20.0397 57.5313 20.0397 55.51C20.0397 53.4886 18.4011 51.85 16.3797 51.85C14.3584 51.85 12.7197 53.4886 12.7197 55.51C12.7197 57.5313 14.3584 59.17 16.3797 59.17Z" fill="#E3AC33"/>
<path d="M16.3797 46.18C18.4011 46.18 20.0397 44.5413 20.0397 42.52C20.0397 40.4986 18.4011 38.86 16.3797 38.86C14.3584 38.86 12.7197 40.4986 12.7197 42.52C12.7197 44.5413 14.3584 46.18 16.3797 46.18Z" fill="#E3AC33"/>
<path d="M25.3504 51.85C27.3718 51.85 29.0104 50.2114 29.0104 48.19C29.0104 46.1687 27.3718 44.53 25.3504 44.53C23.3291 44.53 21.6904 46.1687 21.6904 48.19C21.6904 50.2114 23.3291 51.85 25.3504 51.85Z" fill="#E3AC33"/>
<path d="M65.9901 11.99C65.9901 14.29 62.2701 16.15 57.6801 16.15C53.0901 16.15 49.3701 14.29 49.3701 11.99" stroke="white" stroke-width="3" stroke-miterlimit="10" stroke-linecap="round" stroke-linejoin="round"/>
<path d="M65.9901 20.3C65.9901 18 62.2701 16.14 57.6801 16.14C53.0901 16.14 49.3701 18 49.3701 20.3" stroke="white" stroke-width="3" stroke-miterlimit="10" stroke-linecap="round" stroke-linejoin="round"/>
</g>
<defs>
<clipPath id="clip0">
<rect width="130.61" height="133.09" fill="white"/>
</clipPath>
</defs>
</svg>
