<svg width="141" height="136" viewBox="0 0 141 136" fill="none" xmlns="http://www.w3.org/2000/svg">
<g clip-path="url(#clip0)">
<path d="M133.112 52.46C133.112 90.4257 115.506 124.386 69.3588 125.923C51.753 126.514 21.933 123.375 3.46875 104.911" stroke="white" stroke-width="2.68246" stroke-miterlimit="10" stroke-linecap="round" stroke-linejoin="round"/>
<path d="M140.247 56.7162C140.247 57.6193 140.238 58.5134 140.22 59.3986" stroke="white" stroke-width="0.894152" stroke-miterlimit="10"/>
<path d="M139.988 64.7725C137.181 107.379 111.787 133.309 70.8527 134.65C69.6992 134.686 68.3401 134.713 66.82 134.713C59.479 134.713 48.2217 134.096 36.3295 131.154C23.4984 127.98 12.7507 122.857 4.29199 115.9" stroke="white" stroke-width="0.894152" stroke-miterlimit="10" stroke-dasharray="5.37 5.37"/>
<path d="M2.27069 114.157C1.60008 113.558 0.947348 112.95 0.3125 112.324" stroke="white" stroke-width="0.894152" stroke-miterlimit="10"/>
<path d="M25.7783 117.965V66.7395H121.515V97.1228" stroke="white" stroke-width="2.68246" stroke-miterlimit="10" stroke-linecap="round" stroke-linejoin="round"/>
<path d="M96.29 66.7396V51.6553" stroke="white" stroke-width="2.68246" stroke-miterlimit="10" stroke-linecap="round" stroke-linejoin="round"/>
<path d="M52.1191 51.6553V66.7396" stroke="white" stroke-width="2.68246" stroke-miterlimit="10" stroke-linecap="round" stroke-linejoin="round"/>
<path d="M96.2902 51.6553C96.2902 53.9801 86.4099 55.8667 74.2047 55.8667C61.9995 55.8667 52.1191 53.9801 52.1191 51.6553" stroke="white" stroke-width="2.68246" stroke-miterlimit="10" stroke-linecap="round" stroke-linejoin="round"/>
<path d="M56.7687 48.8923C53.3978 49.6345 52.1191 50.6002 52.1191 51.6553" stroke="white" stroke-width="2.68246" stroke-miterlimit="10" stroke-linecap="round" stroke-linejoin="round"/>
<path d="M96.2911 51.6553C96.2911 50.6002 94.78 49.6345 91.418 48.8923" stroke="white" stroke-width="2.68246" stroke-miterlimit="10" stroke-linecap="round" stroke-linejoin="round"/>
<path d="M57.5205 41.5244V53.7654" stroke="white" stroke-width="1.7883" stroke-miterlimit="10" stroke-linecap="round" stroke-linejoin="round"/>
<path d="M90.8809 41.5244V53.7654" stroke="white" stroke-width="1.7883" stroke-miterlimit="10" stroke-linecap="round" stroke-linejoin="round"/>
<path d="M54.0501 11.0339C56.9561 5.7763 64.6726 1.34131 71.1016 1.34131H74.1954H77.2891C86.7045 1.34131 94.3406 8.97737 94.3406 18.3928V39.7004C94.3406 41.7749 85.3275 43.4559 74.1864 43.4559C63.0453 43.4559 54.0322 41.7749 54.0322 39.7004V23.8292" stroke="white" stroke-width="2.68246" stroke-miterlimit="10" stroke-linecap="round" stroke-linejoin="round"/>
<path d="M85.2741 3.4873C85.2741 4.92689 80.3205 6.09823 74.2045 6.09823C68.0885 6.09823 63.126 4.92689 63.126 3.4873" stroke="white" stroke-width="2.68246" stroke-miterlimit="10" stroke-linecap="round" stroke-linejoin="round"/>
<path d="M51.4487 24.7145C54.0561 24.7145 56.1698 21.652 56.1698 17.8742C56.1698 14.0964 54.0561 11.0339 51.4487 11.0339C48.8413 11.0339 46.7275 14.0964 46.7275 17.8742C46.7275 21.652 48.8413 24.7145 51.4487 24.7145Z" stroke="white" stroke-width="2.68246" stroke-miterlimit="10" stroke-linecap="round" stroke-linejoin="round"/>
<path d="M75.8775 94.9857V79.7494H71.4068V94.9857H66.2207L73.6422 107.844L81.0726 94.9857H75.8775Z" fill="#E3AC33"/>
<path d="M37.0713 66.7395V117.322" stroke="white" stroke-width="0.894152" stroke-miterlimit="10" stroke-dasharray="5.36 5.36"/>
<path d="M110.222 66.7395V106.172" stroke="white" stroke-width="0.894152" stroke-miterlimit="10" stroke-dasharray="5.36 5.36"/>
</g>
<defs>
<clipPath id="clip0">
<rect width="140.695" height="135.16" fill="white"/>
</clipPath>
</defs>
</svg>
