<svg width="100" height="116" viewBox="0 0 100 116" fill="none" xmlns="http://www.w3.org/2000/svg">
<g filter="url(#filter0_d)">
<path d="M14.5455 86.2549H23.6566V92.4659C23.6566 95.2851 24.5278 97.6869 26.1794 99.3892C27.8341 101.095 30.1777 102 32.9293 102C35.6809 102 38.0245 101.095 39.6792 99.3892C41.3308 97.6869 42.202 95.2851 42.202 92.4659V86.2549H64.1818C65.496 86.2549 66.6529 85.8083 67.4815 84.9622C68.3074 84.1189 68.7273 82.9607 68.7273 81.6824C68.7273 80.4291 68.3021 79.2874 67.4768 78.4558C66.6496 77.6223 65.4957 77.1762 64.1818 77.1762H42.202V66.2096H58.0758C67.5617 66.2096 75.5521 63.0199 81.1766 57.576C86.8022 52.1308 90 44.4884 90 35.704C90 26.8657 86.9092 19.1761 81.4173 13.6941C75.9243 8.21085 68.0936 5 58.7323 5H33.1263C30.2558 5 27.854 5.89808 26.1738 7.658C24.4994 9.41184 23.6566 11.9011 23.6566 14.8649V56.9986H14.5455C13.2183 56.9986 12.0634 57.4703 11.2412 58.3207C10.4236 59.1665 10 60.3195 10 61.571C10 62.8477 10.4186 64.0171 11.2368 64.8746C12.0602 65.7374 13.2179 66.2096 14.5455 66.2096H23.6566V77.1762H14.5455C13.2299 77.1762 12.0869 77.6238 11.2738 78.4655C10.4656 79.3021 10.0657 80.4428 10.0657 81.6824C10.0657 82.9473 10.4607 84.1044 11.2692 84.9525C12.0836 85.8068 13.2296 86.2549 14.5455 86.2549ZM42.202 51.0446V20.6281H53.9394C59.8177 20.6281 64.0902 22.1403 66.8859 24.7136C69.67 27.2763 71.1263 31.0174 71.1263 35.7702C71.1263 40.5897 69.6532 44.3637 66.8529 46.9427C64.0409 49.5323 59.7522 51.0446 53.8737 51.0446H42.202Z" stroke="white" stroke-width="2"/>
</g>
<defs>
<filter id="filter0_d" x="0.972222" y="0.694445" width="98.0556" height="115.056" filterUnits="userSpaceOnUse" color-interpolation-filters="sRGB">
<feFlood flood-opacity="0" result="BackgroundImageFix"/>
<feColorMatrix in="SourceAlpha" type="matrix" values="0 0 0 0 0 0 0 0 0 0 0 0 0 0 0 0 0 0 127 0"/>
<feOffset dy="4.72222"/>
<feGaussianBlur stdDeviation="4.01389"/>
<feColorMatrix type="matrix" values="0 0 0 0 0.185885 0 0 0 0 0.330124 0 0 0 0 0.345833 0 0 0 0.110987 0"/>
<feBlend mode="normal" in2="BackgroundImageFix" result="effect1_dropShadow"/>
<feBlend mode="normal" in="SourceGraphic" in2="effect1_dropShadow" result="shape"/>
</filter>
</defs>
</svg>
