<svg width="107" height="144" viewBox="0 0 107 144" fill="none" xmlns="http://www.w3.org/2000/svg">
<path d="M27.2646 80.4647C26.4799 81.4696 26.0205 82.7328 26.0205 84.1109V137.378" stroke="white" stroke-width="3" stroke-miterlimit="10" stroke-linecap="round" stroke-linejoin="round"/>
<path d="M69.1533 137.368V84.1014C69.1533 82.7329 68.6844 81.4696 67.9092 80.4552" stroke="white" stroke-width="3" stroke-miterlimit="10" stroke-linecap="round" stroke-linejoin="round"/>
<path d="M69.1534 137.368C69.1534 139.923 59.5068 142 47.5826 142C35.6583 142 26.0117 139.933 26.0117 137.368" stroke="white" stroke-width="3" stroke-miterlimit="10" stroke-linecap="round" stroke-linejoin="round"/>
<path d="M23.9531 55.8602V78.1584C23.9531 80.6466 34.528 82.6659 47.5911 82.6659C60.6542 82.6659 71.2291 80.6466 71.2291 78.1584V55.8602" stroke="white" stroke-width="3" stroke-miterlimit="10" stroke-linecap="round" stroke-linejoin="round"/>
<path d="M71.2203 55.8602C71.2203 58.3484 60.6454 60.3677 47.5823 60.3677C34.5192 60.3677 23.9443 58.3484 23.9443 55.8602" stroke="white" stroke-width="3" stroke-miterlimit="10" stroke-linecap="round" stroke-linejoin="round"/>
<path d="M28.9295 52.9031C25.3216 53.6974 23.9531 54.7309 23.9531 55.8602" stroke="white" stroke-width="3" stroke-miterlimit="10" stroke-linecap="round" stroke-linejoin="round"/>
<path d="M71.2205 55.8602C71.2205 54.7309 69.6032 53.6974 66.0049 52.9031" stroke="white" stroke-width="3" stroke-miterlimit="10" stroke-linecap="round" stroke-linejoin="round"/>
<path d="M29.7344 45.0172V58.109" stroke="white" stroke-width="2" stroke-miterlimit="10" stroke-linecap="round" stroke-linejoin="round"/>
<path d="M65.4404 45.0173V58.1091" stroke="white" stroke-width="2" stroke-miterlimit="10" stroke-linecap="round" stroke-linejoin="round"/>
<path d="M26.002 20.2501C26.002 6.5 37.3903 2 44.2712 2H47.5824H50.8936C60.9709 2 69.1437 10.1728 69.1437 20.2501V43.0555C69.1437 45.2757 59.4971 47.0749 47.5728 47.0749C35.6485 47.0749 26.002 45.2757 26.002 43.0555V20.2501Z" stroke="white" stroke-width="3" stroke-miterlimit="10" stroke-linecap="round" stroke-linejoin="round"/>
<path d="M59.1046 4.30627C59.1046 5.84705 53.8028 7.10073 47.2569 7.10073C40.711 7.10073 35.4092 5.84705 35.4092 4.30627" stroke="white" stroke-width="3" stroke-miterlimit="10" stroke-linecap="round" stroke-linejoin="round"/>
<path d="M86.2384 29.7149L81.8229 25.2994L77.4073 29.7149L76 28.3076L80.4155 23.8921L76 19.4766L77.4073 18.0692L81.8229 22.4847L86.2208 18.0868L87.6281 19.4941L83.2302 23.8921L87.6457 28.3076L86.2384 29.7149Z" fill="white"/>
<path d="M91.1104 35.274L91.1279 33.1454L101.437 23.8394C102.316 23.0301 102.914 22.2737 103.196 21.5524C103.495 20.8312 103.636 20.0747 103.636 19.2831C103.636 18.3507 103.407 17.4887 102.967 16.7323C102.527 15.9759 101.929 15.3601 101.173 14.9204C100.416 14.4806 99.5896 14.2519 98.6572 14.2519C97.6896 14.2519 96.8277 14.4806 96.0536 14.9555C95.2972 15.4129 94.6991 16.0286 94.2593 16.7851C93.8195 17.5415 93.6084 18.3683 93.626 19.2655H91.2511C91.2511 17.8758 91.5853 16.6443 92.2362 15.5361C92.8871 14.4278 93.7843 13.5834 94.8926 12.9501C96.0008 12.3168 97.285 12.0001 98.6924 12.0001C100.082 12.0001 101.314 12.3168 102.422 12.9677C103.53 13.6186 104.392 14.4981 105.043 15.5888C105.694 16.6795 105.993 17.9109 105.993 19.2655C105.993 20.2155 105.887 21.0599 105.659 21.7811C105.43 22.5024 105.078 23.1709 104.603 23.7866C104.128 24.4023 103.513 25.0356 102.774 25.6865L93.626 33.9546L93.2565 33.0047H106.011V35.2388H91.1104V35.274Z" fill="white"/>
<path d="M0.124803 18.082L0.0673828 24.0059L10.4604 21.1444L0.124803 18.082Z" fill="#E3AC33"/>
<path d="M10.5173 15.9574L0.181641 11.4212L3.18663 6.99988L10.5173 15.9574Z" fill="#E3AC33"/>
<path d="M10.4122 26.3313L0 30.6761L2.91886 35.1549L10.4122 26.3313Z" fill="#E3AC33"/>
<path d="M49.5825 21.7277V15H44.7975V21.7277H39.2373L47.19 35.4894L55.1331 21.7277H49.5825Z" fill="#E3AC33"/>
<path d="M26 13H18.1231C18.0413 13 17.9603 13.0096 17.8897 13.0507C17.4705 13.2949 16 14.6402 16 21.5C16 28.3598 17.4705 29.7051 17.8897 29.9493C17.9603 29.9904 18.0413 30 18.1231 30H26" stroke="white" stroke-width="3" stroke-linecap="round" stroke-linejoin="round"/>
</svg>
