<svg width="117" height="32" viewBox="0 0 117 32" fill="none" xmlns="http://www.w3.org/2000/svg">
<circle cx="16" cy="16" r="16" fill="white"/>
<path fill-rule="evenodd" clip-rule="evenodd" d="M0 16.019C0 7.17832 7.12375 0 15.9431 0C24.7632 0 32 7.14043 32 15.981C32 24.8217 24.8383 32 16.019 32C11.7973 32 7.91545 30.3377 5.05047 27.6174L11.7973 21.5726C12.9659 22.4793 14.4355 23.0082 16.019 23.0082C19.8629 23.0082 22.9918 19.8725 22.9918 16.019C22.9918 12.1652 19.8629 9.02952 16.019 9.02952C12.1742 9.02952 9.04608 12.1652 9.04608 16.019C9.04608 17.3412 9.3851 18.5502 10.0259 19.608L3.24109 25.653C1.20573 22.9705 0 19.6459 0 16.019ZM18.9226 20.0162C18.7307 19.7957 18.7686 19.4279 18.9992 19.2442C20.0734 18.4354 20.6871 17.1855 20.6485 15.8621C20.6485 14.6858 20.1501 13.5461 19.2678 12.7375C19.0372 12.5168 19.0372 12.1859 19.2678 11.9654C19.4976 11.745 19.8428 11.745 20.0734 11.9654C21.1855 12.9947 21.7992 14.3916 21.7992 15.8621C21.7992 17.5164 21.071 19.0603 19.7282 20.0897C19.6517 20.1633 19.4976 20.2 19.3831 20.2C19.1912 20.2 19.0372 20.1633 18.9226 20.0162Z" fill="#2CB143"/>
<path fill-rule="evenodd" clip-rule="evenodd" d="M40.1001 24.5009V7.39544H42.9863V14.9952H46.5879C46.8839 12.747 47.8213 10.8898 49.3754 9.39922C50.9295 7.93304 52.7303 7.19995 54.8024 7.19995C56.9486 7.19995 58.7494 8.00635 60.1555 9.59471C61.5615 11.1831 62.277 13.1869 62.277 15.5572C62.277 18.123 61.4629 20.2734 59.8595 22.0328C58.2314 23.8167 56.2826 24.6964 53.9884 24.6964C51.8915 24.6964 50.1155 23.9144 48.7094 22.3749C47.3033 20.8355 46.5632 18.9294 46.5139 16.608H42.9863V24.5009H40.1001ZM49.4743 15.3128C49.4743 17.3899 49.9677 19.1493 50.9791 20.5911C51.9905 22.0328 53.2239 22.7659 54.704 22.7659C56.0607 22.7659 57.1708 22.1795 58.0343 21.0309C58.8976 19.8824 59.317 18.3918 59.317 16.5835C59.317 14.5064 58.799 12.7226 57.7875 11.2808C56.7762 9.83907 55.5181 9.13042 54.0379 9.13042C52.6812 9.13042 51.5958 9.7169 50.7571 10.8654C49.8937 12.0139 49.4743 13.5045 49.4743 15.3128ZM75.5983 12.7714H63.9548V14.4575L68.3951 14.3354V24.5009H71.1579V14.3354L75.5983 14.4575V12.7714ZM79.8656 19.1004C79.989 20.2734 80.4331 21.1531 81.1484 21.7396C81.8638 22.3505 82.8505 22.6437 84.0593 22.6437C84.824 22.6437 85.5394 22.546 86.2301 22.3505C86.8961 22.155 87.3895 21.9595 87.7102 21.764L88.1789 21.4464V23.0103C88.1295 23.0592 88.0555 23.108 87.9815 23.1813C87.8829 23.2546 87.6855 23.4012 87.3648 23.5968C87.0442 23.7922 86.7235 23.9633 86.3781 24.1099C86.0081 24.2565 85.564 24.3787 84.9967 24.5253C84.4293 24.6475 83.8372 24.6964 83.2452 24.6964C81.3458 24.6964 79.8163 24.1588 78.6815 23.0592C77.5222 21.9595 76.9548 20.5911 76.9548 18.9049C76.9548 17.1211 77.5962 15.606 78.8543 14.3842C80.1123 13.1868 81.6418 12.5759 83.4919 12.5759C85.1694 12.5759 86.4521 13.1135 87.3402 14.1887C88.2035 15.264 88.6476 16.7545 88.6476 18.685L87.9075 19.1004H79.8656ZM83.1215 14.3843C82.2581 14.3843 81.518 14.6776 80.9507 15.2396C80.3833 15.8016 80.0133 16.5836 79.8899 17.5611H86.1063C85.7857 15.4351 84.7743 14.3843 83.1215 14.3843ZM94.0994 12.7714H91.6079V24.5009H94.3707V19.3937L95.4068 19.2227L99.5264 24.5009H102.635L97.5283 17.8787L101.919 12.7714H99.6745L95.5302 17.6587L94.3707 17.8298V13.3823L94.0994 12.7714ZM114.105 16.4124V21.9351C114.105 22.5216 114.352 22.8148 114.87 22.8148C115.042 22.8148 115.264 22.7659 115.486 22.6926C115.708 22.6193 115.906 22.5704 116.029 22.4971L116.251 22.3749V23.8411C115.536 24.4032 114.623 24.6964 113.513 24.6964C112.304 24.6964 111.589 24.2076 111.391 23.2302C110.355 24.2076 109.073 24.6964 107.543 24.6964C106.408 24.6964 105.545 24.4032 104.978 23.8411C104.41 23.2791 104.114 22.5948 104.114 21.764C104.114 21.2508 104.238 20.7865 104.46 20.3712C104.682 19.9557 104.978 19.5892 105.348 19.296C105.693 19.0272 106.112 18.7584 106.606 18.5384C107.099 18.3185 107.568 18.1474 108.012 18.0252C108.431 17.9031 108.9 17.8053 109.418 17.7076C109.936 17.6343 110.306 17.5609 110.577 17.5365C110.849 17.5121 111.095 17.5121 111.342 17.4876V16.9256C111.342 16.1681 111.095 15.5816 110.602 15.1417C110.084 14.7263 109.344 14.5064 108.357 14.5064C107.716 14.5064 107.099 14.6041 106.532 14.7752C105.94 14.9707 105.52 15.1662 105.249 15.3617L104.854 15.6305V14.1399C104.904 14.091 104.978 14.0421 105.052 13.9688C105.126 13.8955 105.323 13.7733 105.644 13.6023C105.94 13.4312 106.26 13.2601 106.606 13.1135C106.951 12.9913 107.395 12.8692 107.938 12.747C108.48 12.6248 109.048 12.5759 109.64 12.5759C111.145 12.5759 112.255 12.918 112.995 13.5778C113.735 14.2376 114.105 15.1906 114.105 16.4124ZM106.902 21.2752C106.902 21.7395 107.074 22.1305 107.444 22.4237C107.814 22.7414 108.283 22.888 108.9 22.888C109.763 22.888 110.577 22.5704 111.342 21.9594V18.856C110.997 18.8804 110.627 18.9049 110.257 18.9782C109.862 19.0515 109.393 19.1492 108.826 19.2959C108.258 19.4669 107.814 19.7113 107.444 20.0534C107.074 20.3955 106.902 20.8109 106.902 21.2752Z" fill="white"/>
</svg>
