<svg viewBox="0 0 202 202" fill="none" xmlns="http://www.w3.org/2000/svg">
    <path fill-rule="evenodd" clip-rule="evenodd" d="M12 0H20.2V2H12C6.47715 2 2 6.47715 2 12V19.2381H0V12C0 5.37258 5.37258 0 12 0ZM0 181.8V190C0 196.627 5.37258 202 12 202H20.2V200H12C6.47715 200 2 195.523 2 190V181.8H0ZM200 181.8V190C200 195.523 195.523 200 190 200H182.762V202H190C196.627 202 202 196.627 202 190V181.8H200ZM202 19.2381V12C202 5.37258 196.627 0 190 0H182.762V2H190C195.523 2 200 6.47715 200 12V19.2381H202Z" fill="#F36D01"/>
    <g clip-path="url(#clip0)">
        <rect x="0" y="0" width="100%" height="100%" fill="#000"/>
        <path fill-rule="evenodd" clip-rule="evenodd" d="M18.0044 41.38L18.0087 64.76H41.3887H64.7687V41.3844V18.0087L41.38 18.0044L18 18L18.0044 41.38ZM91.4887 21.3356V24.6713L84.8087 24.6756L78.1287 24.68L78.1244 28.02L78.12 31.36H84.8044H91.4887V28.0287V24.6931H108.184H124.88V31.3687V38.0444H121.544H118.209V34.7087V31.3731H114.873H111.537V34.7087V38.0444H114.873H118.209V41.38V44.7156H114.873H111.537V48.06V51.4044H101.517H91.4974V54.74V58.0756L88.1574 58.08L84.8174 58.0844L84.8131 64.7644L84.8087 71.4444H81.4731H78.1374V78.12V84.7956H74.8018H71.4662V94.8244V104.853H74.8018H78.1374V108.189V111.524H68.1H58.08V108.189V104.853L61.42 104.849L64.76 104.844V101.509V98.1731L61.42 98.1687L58.08 98.1644V94.8287V91.4931L61.42 91.4887L64.76 91.4844V88.1487V84.8131H61.4244H58.0887L58.0844 88.1531L58.08 91.4931H51.4044H44.7287V88.1574V84.8218L48.0644 84.8174L51.4 84.8131L51.4044 81.4731L51.4087 78.1331H61.4287H71.4487V74.7974V71.4618H61.4244H51.4044V74.7974V78.1331H44.7244H38.04V81.4687V84.8044L31.36 84.8087L24.68 84.8131V88.1487V91.4844L31.36 91.4887L38.04 91.4931V94.8287V98.1644H41.3756H44.7113V104.849V111.533H38.04H31.3644V104.849V98.1644L28.0244 98.1687L24.6844 98.1731L24.68 101.509L24.6756 104.844L21.34 104.849L18.0044 104.853L18 118.213V131.569L21.34 131.564L24.68 131.56L24.6844 121.544L24.6887 111.529H28.0287H31.3644V121.549V131.569H51.4044H71.4444V141.589V151.609H78.12H84.7956V158.284V164.96L88.1356 164.964L91.4756 164.969L91.48 171.649L91.4844 178.329H94.82H98.1556V174.993V171.657L101.496 171.653L104.836 171.649V168.313V164.977L98.1556 164.973L91.4756 164.969V158.293V151.617H88.14H84.8044V144.933V138.249H88.14H91.4756V141.584V144.92H94.8113H98.1469V151.604V158.289H101.491H104.836V154.953V151.617H108.171H111.507V158.293V164.969H114.843H118.178V161.633V158.297H124.863H131.547V161.633V164.969L128.207 164.973L124.867 164.977L124.863 171.657L124.858 178.337H121.523H118.187V175.002V171.666H114.851H111.516V175.002V178.337L108.176 178.342L104.836 178.346L104.831 181.682L104.827 185.017H124.867H144.907V181.682V178.346H151.591H158.276V181.682V185H161.611H164.947V181.664V178.329H161.611H158.276V174.993V171.657H164.96H171.644V168.313V164.969H174.98H178.316V174.989V185H181.651H185V168.304V151.609H181.664H178.329V148.264V144.92H181.664H185V141.584V138.249H181.664H178.329V141.584V144.92H174.993H171.657V148.264V151.609H168.313H164.969V154.944V158.28H168.313H171.657V161.616V164.951H164.973H158.289V168.296V171.64H148.269H138.249V168.296V164.951H141.584H144.92V161.616V158.28H151.604H158.289V141.58V124.88L161.624 124.876L164.96 124.871V128.216V131.56H168.304H171.649V124.876V118.191H174.984H178.32V121.527V124.863H181.656H185V118.187V111.529H181.664H178.329V108.193V104.857H181.664H185V94.8287V84.8H181.664H178.329V81.4644V78.1287H171.644H164.96V74.7931V71.4574H158.284H151.609V74.7931V78.1287H148.264H144.92V81.4644V84.8H134.9H124.88V81.4644V78.1287H111.52H98.16V71.4531V64.7774L101.5 64.7731L104.84 64.7687L104.844 61.4287L104.849 58.0887H108.184H111.52V61.4331V64.7774H114.856H118.191V68.1131V71.4487H124.876H131.56V64.7644V58.08H128.216H124.871V61.4156V64.7513H121.536H118.2V61.4156V58.08H114.864H111.529V54.7444V51.4087H114.864H118.2V48.0731V44.7374L124.88 44.7331L131.56 44.7287V34.7044V24.6844L128.22 24.68L124.88 24.6756V21.3356V18H108.184H91.4887V21.3356ZM138.249 41.38L138.253 64.76L161.629 64.7644L185.004 64.7687V41.3844V18H161.624H138.244L138.249 41.38ZM58.08 41.3844V58.08H41.3844H24.6887V41.3844V24.6887H41.3844H58.08V41.3844ZM178.324 41.3844V58.08H161.62H144.916V41.3844V24.6887H161.62H178.324V41.3844ZM31.3644 41.3844V51.4044H41.3844H51.4044V41.3844V31.3644H41.3844H31.3644V41.3844ZM98.1644 38.0444L98.1687 44.7244H101.504H104.84L104.844 38.0444L104.849 31.3644H101.504H98.16L98.1644 38.0444ZM151.609 41.3844V51.4044H161.629H171.649V41.3844V31.3644H161.629H151.609V41.3844ZM71.4487 44.7244V51.4087L78.1287 51.4044L84.8087 51.4V48.0644V44.7287L81.4687 44.7244L78.1287 44.72V41.3844V38.0487H74.7931H71.4574V44.7244H71.4487ZM71.4487 61.4244V64.7687H74.7844H78.12V61.4244V58.08H74.7844H71.4487V61.4244ZM98.1644 61.42V64.7556H94.8287H91.4931V61.42V58.0844H94.8287H98.1644V61.42ZM18 74.7844V78.12H24.6844H31.3687V74.7844V71.4487H24.6844H18V74.7844ZM91.4887 74.7844V78.12H94.8244H98.16L98.1644 81.46L98.1687 84.8L101.504 84.8044L104.84 84.8087V88.1444V91.48H101.504H98.1687V94.8156V98.1513H94.8331H91.4974V101.496V104.84L101.513 104.836L111.529 104.831L111.533 98.1513L111.537 91.4713H118.213H124.889V94.8069V98.1426H121.553H118.217V108.163V118.183H128.237H138.257V114.847V111.511H134.922H131.586V104.827V98.1426H134.922H138.257L138.262 101.483L138.266 104.823L141.602 104.827L144.937 104.831V114.843V124.854L134.922 124.858L124.906 124.863L124.902 134.878L124.897 144.894H121.562H118.226V148.238V151.583H114.891H111.555L111.551 148.243L111.546 144.903L104.866 144.898L98.1862 144.894V141.558V138.223H94.8505H91.5149V134.887V131.551H88.1792H84.8436V128.207V124.863L88.1792 124.867L91.5149 124.871L91.5192 128.211L91.5236 131.551H94.8592H98.1949V124.867V118.183H101.539H104.884V114.847V111.511H94.8636H84.8436V101.491V91.4713H88.1792H91.5149L91.5105 88.1313L91.5062 84.7913L88.1705 84.7869L84.8349 84.7826V78.1069V71.4313H88.1705H91.5062V74.7844H91.4887ZM84.7956 88.1487V91.4844H81.46H78.1244V88.1487V84.8131H81.46H84.7956V88.1487ZM151.609 91.4887V98.1644H158.284H164.96V91.4887V84.8131H168.304H171.649V88.1487V91.4844H174.984H178.32V98.16V104.836H174.984H171.649V111.52V118.204H168.304H164.96V114.869V111.533H158.284H151.609V104.849V98.1644H148.264H144.92V91.4887V84.8131H148.264H151.609V91.4887ZM64.7556 121.54V124.876H58.08H51.4044V121.54V118.204H58.08H64.7556V121.54ZM78.12 124.884V131.569H81.4556H84.7913V134.904V138.24H81.4556H78.12V134.904V131.569H74.7844H71.4487V124.884V118.2H74.7844H78.12V124.884ZM158.284 121.54V124.876H154.949H151.613V121.54V118.204H154.949H158.284V121.54ZM98.1644 134.904V138.24H108.184H118.204V134.904V131.569H108.184H98.1644V134.904ZM151.609 141.589V151.609H141.589H131.569V141.589V131.569H141.589H151.609V141.589ZM18 161.62V185H41.3844H64.7687L64.7644 161.624L64.76 138.249L41.38 138.244H18V161.62ZM138.244 141.58V144.916H141.58H144.916V141.58V138.244H141.58H138.244V141.58ZM58.08 161.62V178.324H41.3844H24.6887V161.62V144.916H41.3844H58.08V161.62ZM31.3644 161.629V171.649H41.3844H51.4044V161.629V151.609H41.3844H31.3644V161.629ZM178.324 154.949V158.284H174.989H171.653V154.949V151.613H174.989H178.324V154.949ZM71.4487 178.324V185H74.7844H78.12V178.324V171.649H74.7844H71.4487V178.324Z" fill="white"/>
    </g>
    <defs>
        <clipPath id="clip0">
            <rect width="167" height="167" fill="white" transform="translate(18 18)"/>
        </clipPath>
    </defs>
</svg>
