<svg width="48" height="48" viewBox="0 0 48 48" fill="none" xmlns="http://www.w3.org/2000/svg">
<rect width="48" height="48" fill="#0A0B11"/>
<path fill-rule="evenodd" clip-rule="evenodd" d="M38.1493 34.5825L25.4235 32.0849L21.7229 29.2726L26.5254 27.7563L41.5336 32.503L31.0734 27.591L23.244 15.1819L31.6945 26.5344L40.937 28.9527L32.4351 23.5205L38.0709 23.4654L29.6269 19.4151L34.9759 19.8089L27.4808 16.3313L32.1599 16.2063L21.6843 11.9489L15.745 11.0039L16.6965 12.492L15.52 13.558L14.2213 15.7035L14.5492 16.6095L12.4572 21.4557L12.7298 23.2315L14.4566 23.4318L15.3439 22.7139L15.4454 21.8899L18.4376 20.141L18.939 18.9607L19.6642 23.3054L16.5062 26.1593L16.3404 28.4392L14.0053 29.395L11.8065 33.8298L13.6028 37.2698L15.1484 37.9688L15.718 33.94L14.3576 33.5649L14.3859 32.2516L38.1493 34.5825ZM12.2579 31.7609L13.3907 29.3009L10.8087 29.6369L6.06145 33.3956L4.97363 35.9201L9.18344 35.7319L8.99571 33.7262L10.1787 31.9666L12.2579 31.7609Z" fill="#F77F22"/>
<path fill-rule="evenodd" clip-rule="evenodd" d="M26.7422 28.7324L23.4415 29.3091L42.8729 34.3851L26.7422 28.7324ZM12.7292 23.2329L16.6883 12.4868L15.5285 13.5434L14.2246 15.6929L14.55 16.5989L12.4541 21.4544L12.7292 23.2329ZM11.8009 33.8366L16.345 28.438L14.0022 29.3951L11.8009 33.8366ZM9.00546 33.7022L10.1704 31.9627L10.8043 29.6398L6.06348 33.3997L9.00546 33.7022ZM21.6889 11.9517L15.7522 11.0054L19.6136 13.1051L21.6889 11.9517ZM27.4918 16.3274L23.2576 15.1874L32.4294 23.5004L27.4918 16.3274ZM31.0574 27.5924L27.9509 24.4764L26.5313 27.7524L31.0574 27.5924ZM19.6663 23.3163L16.5044 26.1567L25.2635 24.4562L19.6663 23.3163Z" fill="#FFB448"/>
<path fill-rule="evenodd" clip-rule="evenodd" d="M23.5559 37.1449L36.13 35.7065L20.0276 34.4671L23.5559 37.1449ZM19.6032 13.1092L15.7496 11L16.6883 12.4827L19.6032 13.1092ZM23.2537 15.1834L21.7262 18.2994L31.0613 27.5991L23.2537 15.1834ZM34.9368 19.7929L27.4944 16.3193L29.6199 19.4219L34.9368 19.7929ZM14.3815 32.2477L38.0022 34.5598L25.3985 32.0783L14.3815 32.2477ZM15.1478 37.9689L15.7188 33.9415L13.6074 37.2712L15.1478 37.9689ZM33.1598 25.5075L40.93 28.9636L32.4551 23.522L33.1598 25.5075ZM15.4346 21.8766L18.4447 20.1223L19.3975 17.8854L14.928 20.9866L14.4458 23.4252L15.342 22.7127L15.4346 21.8766Z" fill="#D3630C"/>
<path fill-rule="evenodd" clip-rule="evenodd" d="M4.97754 35.9094L9.17963 35.7266L8.99833 33.7008L4.97754 35.9094ZM14.3795 32.2462L21.7332 29.2821L16.3391 28.4379L14.3795 32.2462ZM21.6843 11.9409L19.6026 13.1051L32.1484 16.1996L21.6843 11.9409ZM23.2582 15.1847L31.6868 26.5237L32.4557 23.5286L23.2582 15.1847Z" fill="#EC5E00"/>
<path fill-rule="evenodd" clip-rule="evenodd" d="M17.0911 15.3219L14.9194 21.0109L23.2618 15.1821L17.0911 15.3219ZM21.7124 29.2809L25.242 24.4536L20.1038 25.4564L21.7124 29.2809ZM13.6117 37.2511L14.3575 33.5692L11.8115 33.8192L13.6117 37.2511ZM21.7253 18.2834L19.6577 23.3069L25.2536 24.4415L21.7253 18.2834Z" fill="#F36D01"/>
</svg>
